inDegrees=no
num_controls=7
num_derivatives=13
num_iterations=110
num_multipliers=7
num_parameters=0
num_slacks=7
num_states=26
objective=0.469917
objective_accelerations=0.062837
objective_balance=0.002147
objective_effort=0.020058
objective_height=0.375316
objective_ligament=0.009559
solver_duration=1524.209442
status=Solve_Succeeded
success=true
DataType=double
version=3
OpenSimVersion=4.5
endheader
time	/jointset/ground_pelvis/pelvis_tilt/value	/jointset/ground_pelvis/pelvis_tx/value	/jointset/ground_pelvis/pelvis_ty/value	/jointset/hip_l/hip_flexion_l/value	/jointset/hip_l/hip_adduction_l/value	/jointset/hip_l/hip_rotation_l/value	/jointset/back/lumbar_extension/value	/jointset/patellofemoral_l/patellar_flexion_l/value	/jointset/knee_l/knee_flexion_l/value	/jointset/knee_l/knee_adduction_l/value	/jointset/knee_l/knee_rotation_l/value	/jointset/ankle_l/ankle_angle_l/value	/jointset/subtalar_l/subtalar_angle_l/value	/jointset/ground_pelvis/pelvis_tilt/speed	/jointset/ground_pelvis/pelvis_tx/speed	/jointset/ground_pelvis/pelvis_ty/speed	/jointset/hip_l/hip_flexion_l/speed	/jointset/hip_l/hip_adduction_l/speed	/jointset/hip_l/hip_rotation_l/speed	/jointset/back/lumbar_extension/speed	/jointset/patellofemoral_l/patellar_flexion_l/speed	/jointset/knee_l/knee_flexion_l/speed	/jointset/knee_l/knee_adduction_l/speed	/jointset/knee_l/knee_rotation_l/speed	/jointset/ankle_l/ankle_angle_l/speed	/jointset/subtalar_l/subtalar_angle_l/speed	/forceset/tau_hip_flexion_l	/forceset/tau_hip_adduction_l	/forceset/tau_hip_rotation_l	/forceset/tau_knee_flexion_l	/forceset/tau_ankle_angle_l	/forceset/tau_subtalar_angle_l	/forceset/tau_lumbar_extension	lambda_cid13_p0	lambda_cid13_p1	lambda_cid13_p2	lambda_cid13_p3	lambda_cid13_p4	lambda_cid13_p5	lambda_cid14_p0	/jointset/ground_pelvis/pelvis_tilt/accel	/jointset/ground_pelvis/pelvis_tx/accel	/jointset/ground_pelvis/pelvis_ty/accel	/jointset/hip_l/hip_flexion_l/accel	/jointset/hip_l/hip_adduction_l/accel	/jointset/hip_l/hip_rotation_l/accel	/jointset/back/lumbar_extension/accel	/jointset/patellofemoral_l/patellar_flexion_l/accel	/jointset/knee_l/knee_flexion_l/accel	/jointset/knee_l/knee_adduction_l/accel	/jointset/knee_l/knee_rotation_l/accel	/jointset/ankle_l/ankle_angle_l/accel	/jointset/subtalar_l/subtalar_angle_l/accel	gamma_cid13_p0	gamma_cid13_p1	gamma_cid13_p2	gamma_cid13_p3	gamma_cid13_p4	gamma_cid13_p5	gamma_cid14_p0
0	0.05027732850098993	0.10676084646675	0.9039912510105343	0.1266922784136757	-0.3605980423938057	-0.2404751242049499	-0.2144969558742783	0.2051545070141871	0.2051545070141877	-0.1544716654743498	-0.1704834878652073	0.09024313228550125	0.08946247096229777	0	0	0	0	0	0	0	0	0	0	0	0	0	0.1160196617887842	-0.04338655609421757	-0.00678913074450414	-0.2139378003663214	0.09831420842237755	-0.07105223344282485	-0.05436953058793569	-0.1076036681234494	29.4439199488431	-3.338453528523972	19.26225379739397	-450.7310595354417	-54.54140824242641	-26.45632952828525	-6.133972362525812	-2.523682104081564	-0.8644007537661209	14.42263515949987	0.05483886583312929	2.458424951120987	-3.981600193543103	7.211277832455455	7.211277832461829	1.937531824721915	-0.4060997694409726	-0.3825277839484552	-0.08917879386060111	6.789517817500061e-09	1.949170973410738e-07	-6.540295163746303e-08	2.557653824788933e-08	2.628135956296485e-08	8.005404521789588e-08	3.360339467488544e-08
0.01	0.049981106993352	0.1066358229177514	0.9039492135442976	0.1273954572428477	-0.3605952584582293	-0.2403488230858948	-0.2147004953783248	0.2055062268520042	0.205506226852001	-0.154377340252724	-0.1704972850930817	0.0902226018320214	0.08945758154472555	-0.05891932029100148	-0.02492442900933385	-0.008388116237553081	0.1400151263940695	0.0004991404728042422	0.02520231399312296	-0.04041882347554439	0.07010190767933076	0.07010190767934694	0.01867706420770819	-0.002742547704065782	-0.004101184019687438	-0.001038300182346073	0.1114443737640868	-0.05269646407617373	-0.005871057829964241	-0.208117841431747	0.088350281329082	-0.05989167435468174	-0.05082185558842899	-2.59834991786603	24.68290414094333	-2.179522089515898	20.1712764452578	-450.5884107885541	-63.8155494646005	-26.45599037530861	-5.722162637881199	-2.464776065516396	-0.8231052510078036	13.69785742766789	0.03878111948422408	2.542464626254965	-4.028661824488962	6.873331532387772	6.873331532386231	1.804624129837256	-0.2058134880604774	-0.4231718003591619	-0.1202410713693017	5.583109594288624e-09	2.833963361696508e-07	-2.930395122463907e-08	2.730878583547864e-08	-1.02089940979144e-07	6.072658395425314e-08	4.495415938539212e-08
0.02	0.049105442127705	0.106263964525428	0.9038238772772339	0.1294801685456223	-0.3605892172216298	-0.2399722328263394	-0.2152995507971121	0.206551702625957	0.2065517026259569	-0.1541018783068135	-0.1705380040414335	0.09016120792046869	0.08944049203714032	-0.1158886716017618	-0.04936696866495633	-0.01665976016538559	0.2763064947204345	0.0006514602048140191	0.05005782810012741	-0.07910318294824209	0.1387511872272976	0.1387511872272989	0.03622734485709487	-0.005384344094974891	-0.008172691614585739	-0.00244001800260047	0.1068690857394101	-0.06200637205813308	-0.004952984915405093	-0.2022978824971514	0.07838635423579557	-0.04873111526653955	-0.04727418058891684	-5.056607051538558	19.92171809336305	-1.02686831750266	21.16341244454609	-449.7890055754279	-72.95862410192917	-26.45491137021394	-5.743978566477585	-2.427304233339298	-0.8411062918220075	13.677883545959	-0.01452528232576349	2.389064973897287	-3.634707392973763	6.920752206182661	6.920752206182829	1.712175113057612	-0.3859495068096381	-0.3765924989906384	-0.1618623214422693	4.376701371077187e-09	3.718755749982277e-07	6.795049188184894e-09	2.904103342306794e-08	-2.304612415212528e-07	4.13991226906104e-08	5.63049240958988e-08
0.03	0.047667996688067	0.1056504747870569	0.9036161759487259	0.1329102466851954	-0.3605826404219404	-0.2393498429334287	-0.2162760836711864	0.2082754421111032	0.2082754421110984	-0.1536554085802233	-0.1706047846103013	0.09005919596158751	0.08940837684072232	-0.1713983380669546	-0.07320958937973251	-0.02487596458072074	0.4091045777594339	0.0006808866993268459	0.07430843459074184	-0.1159074741738635	0.2056164628633408	0.2056164628633406	0.0529794767712328	-0.007909561731943014	-0.01223708206673084	-0.00396539878071881	0.1039239272568053	-0.05817660675622652	-0.004611358404907075	-0.2006676744850516	0.07879977288907278	-0.05121354179318382	-0.04485786679649161	-5.006253280659997	20.9973963715433	-1.205644302526967	20.48703678861076	-449.1834399019937	-70.15420454127865	-26.45299345465771	-5.42414441602567	-2.344526730928665	-0.811242983984378	12.99008832701763	0.01416519340973114	2.426311290161224	-3.658902333435683	6.512366894746838	6.512366894746544	1.643729245607921	-0.1764842920864391	-0.4224542797472035	-0.1452924243182961	-9.257088457099594e-10	3.899199388644809e-07	1.114791831009494e-08	3.819135682142889e-08	-3.370872771954827e-07	2.039374602260172e-08	6.341990796982215e-08
0.04	0.04568151783787908	0.1048022016934617	0.9033264394825455	0.1376501691839904	-0.3605752716416927	-0.2384882964149095	-0.2176117819267326	0.2106564246830912	0.210656424683091	-0.1530440181314914	-0.1706949526355359	0.0899163217059006	0.08936152454285878	-0.2256953537115678	-0.09632363970978454	-0.03306678769986358	0.5382753665643234	0.0008098563166363376	0.09788915322206436	-0.1509362592426583	0.2701998045966508	0.2701998045966495	0.06921148928601237	-0.01006183536675167	-0.01634515097570684	-0.005387438291704458	0.1009787687742385	-0.05434684145431828	-0.004269731894359841	-0.1990374664729414	0.07921319154235473	-0.05369596831982547	-0.04244155300403937	-4.926505015875079	22.07270395510403	-1.389817894959993	19.88604031470319	-447.9864306539305	-67.22910303899801	-26.44981756850573	-5.501448402361649	-2.281590156394475	-0.8360300325835485	12.95242469913702	0.005383342233569838	2.255087402038903	-3.279606161608454	6.46436542563603	6.464365425636252	1.608151233185939	-0.3113607063777434	-0.3853281903568254	-0.141194068015733	-6.312572711849186e-09	4.065120372675934e-07	1.48462280239449e-08	4.749463023650679e-08	-4.432649568930554e-07	-6.46226839311412e-10	7.044755615639328e-08
0.05	0.04315795460872683	0.1037262351994939	0.9029546346330907	0.1436647513568214	-0.3605663350665073	-0.2373951233147495	-0.2192883795068538	0.2136731195357423	0.2136731195357368	-0.1522730906500575	-0.1708060591329874	0.08973235933314659	0.08930080572005436	-0.2787598815410318	-0.1187639899270191	-0.04130870647157916	0.664022269307976	0.0009692996976608334	0.1206509534741687	-0.1841098239725575	0.3328109992875383	0.3328109992875383	0.08483716786979048	-0.01210458631220022	-0.02045292873227996	-0.006765652920135659	0.09667287912258384	-0.05363561422871384	-0.003596288304797861	-0.1957726898167373	0.0764931961919964	-0.05245573314393811	-0.03920286414765232	-5.609751515871364	21.55965506768448	-1.200599995163842	19.72255826316325	-446.4789232885782	-67.37126388166985	-26.44495486371479	-5.170333859138156	-2.209397506789072	-0.8205409525299094	12.29300602616408	0.01993482970830571	2.272559993476508	-3.295216707313113	6.110257347736367	6.110257347736422	1.51932405892573	-0.1425082978379489	-0.4243265335723697	-0.1375999188307434	-8.043290356938343e-09	4.025242241059587e-07	1.609526134676498e-08	4.962990877209674e-08	-4.984990395356429e-07	-1.518740121130063e-08	7.295760553183615e-08
0.06	0.04011147032409965	0.1024290371928736	0.9024999569653059	0.1509182391499261	-0.360556062058778	-0.2360771654807328	-0.2212885097500005	0.2173060785066779	0.2173060785066804	-0.1513499968051968	-0.1709359483417493	0.08950715438977375	0.08922601179925085	-0.3302795648064719	-0.1405699422403007	-0.04964135136584866	0.7860564906190164	0.00107714282554083	0.1428460999934855	-0.2156427918477545	0.3934526282552758	0.3934526282552763	0.0996447619716475	-0.01381837762602907	-0.02459366509944575	-0.008202457891524368	0.09236698947093963	-0.05292438700310702	-0.002922844715157355	-0.1925079131605335	0.0737732008416422	-0.05121549796804794	-0.03596417529126234	-6.267277029235571	21.04710843524522	-1.017180857228202	19.62950083163782	-444.4492703106569	-67.40037237574111	-26.43783971662194	-5.192479489556884	-2.154710575603913	-0.8541752570943324	12.20988841261455	-0.00493670839532873	2.141756655481406	-2.95148679066802	6.07045228100603	6.070452281006107	1.444534336801723	-0.2455687800538026	-0.3919199124753694	-0.1529121366072366	-9.620065003246443e-09	3.976698883521243e-07	1.724116724259432e-08	5.146337699697141e-08	-5.515881286180203e-07	-2.945494196266145e-08	7.527744022049467e-08
0.07000000000000001	0.03655650772979584	0.1009169988747849	0.901961266054031	0.1593749484671346	-0.3605448303955749	-0.2345409169429524	-0.2235949392643681	0.2215363198150732	0.2215363198150693	-0.1502825086100352	-0.1710822462953414	0.08924063613217773	0.0891367978289543	-0.3804779261026022	-0.1617232204915443	-0.05812437237089935	0.904678683488828	0.001174439048346179	0.1642974181224738	-0.2453656019321666	0.4522594094823182	0.4522594094823156	0.1137321763924987	-0.01538266993977441	-0.02871032651066851	-0.009633274254920828	0.08796453440060988	-0.05159898485112696	-0.002274941945397708	-0.1899437626572434	0.07249061470504287	-0.05062752452744742	-0.03270009142017264	-6.497585892649131	20.78882534868506	-0.9265994238015093	19.14337812588401	-442.4469043027008	-66.88964456182127	-26.42790237087912	-4.898248622028572	-2.078451002112452	-0.849607705606431	11.59738465219865	0.01778471147537259	2.130901711913477	-2.941051753276236	5.735342368853882	5.735342368853406	1.372813285437927	-0.1030853824644591	-0.4215731827824911	-0.1371715192107337	-1.02619689623566e-08	3.43159156480757e-07	4.455923062257644e-09	4.97764516566409e-08	-5.646204097236232e-07	-4.280277139686716e-08	7.190437620954024e-08
0.08	0.03250661468805273	0.09919686486373823	0.9013368964960266	0.1689996796986484	-0.3605324813853725	-0.232793338759821	-0.2261902716067695	0.22634453920079	0.2263445392007911	-0.1490777526125202	-0.1712424323571714	0.08893294447500223	0.08903347466842282	-0.4292656542942296	-0.182189080831902	-0.06677708071178573	1.019660873480009	0.001300612225427817	0.1851120290636991	-0.2734233574545149	0.5090482437213817	0.5090482437213764	0.1270983224417939	-0.01659599927070079	-0.03282834501536216	-0.01102429593851286	0.08356207933028731	-0.05027358269914755	-0.001627039175557469	-0.1873796121539624	0.07120802856844258	-0.05003955108684893	-0.02943600754907644	-6.705713628814408	20.53141612601071	-0.8415922034954811	18.72159291931526	-439.9922432635781	-66.27555904546006	-26.41442285103788	-4.910352868656302	-2.017226993426733	-0.8881127242614738	11.48188783688838	0.0008386824599297751	2.014415217928819	-2.618475878255234	5.666862883410248	5.666862883410369	1.300280662490521	-0.1753761834900076	-0.3921913311695557	-0.1449532006463522	-1.084355868358301e-08	2.854447861501942e-07	-9.2281049939607e-09	4.786240415081329e-08	-5.750683806371761e-07	-5.609126461706284e-08	6.8164028411514e-08
